REM DIRINDEX 1\2\3,1\2\4,1\2\5,1\2\6
REM DIRNAME cjc157,folder01,folder02,folder03,folder04,folder05
TITLE ""
FILE "023 023.mp3" MP3
  TRACK 01 AUDIO
    TITLE "0:"
    INDEX 01 00:00:00
  TRACK 02 AUDIO
    TITLE "3:cjc157_0848"
    INDEX 01 00:00:13
  TRACK 03 AUDIO
    TITLE "0:"
    INDEX 01 00:01:42
  TRACK 04 AUDIO
    TITLE "4:cjc157_0849"
    INDEX 01 00:02:10
  TRACK 05 AUDIO
    TITLE "0:"
    INDEX 01 00:03:33
  TRACK 06 AUDIO
    TITLE "5:cjc157_0850"
    INDEX 01 00:04:03
  TRACK 07 AUDIO
    TITLE "0:"
    INDEX 01 00:06:10
  TRACK 08 AUDIO
    TITLE "5:cjc157_0851"
    INDEX 01 00:06:55
  TRACK 09 AUDIO
    TITLE "0:"
    INDEX 01 00:08:60
  TRACK 10 AUDIO
    TITLE "3:cjc157_0852"
    INDEX 01 00:09:28
  TRACK 11 AUDIO
    TITLE "0:"
    INDEX 01 00:10:66
  TRACK 12 AUDIO
    TITLE "4:cjc157_0853"
    INDEX 01 00:11:29
  TRACK 13 AUDIO
    TITLE "0:"
    INDEX 01 00:14:21
  TRACK 14 AUDIO
    TITLE "5:cjc157_0854"
    INDEX 01 00:14:66
  TRACK 15 AUDIO
    TITLE "0:"
    INDEX 01 00:18:01
  TRACK 16 AUDIO
    TITLE "5:cjc157_0855"
    INDEX 01 00:18:46
  TRACK 17 AUDIO
    TITLE "0:"
    INDEX 01 00:21:06
  TRACK 18 AUDIO
    TITLE "3:cjc157_0856"
    INDEX 01 00:21:49
  TRACK 19 AUDIO
    TITLE "0:"
    INDEX 01 00:23:04
  TRACK 20 AUDIO
    TITLE "4:cjc157_0857"
    INDEX 01 00:23:50
  TRACK 21 AUDIO
    TITLE "0:"
    INDEX 01 00:26:44
  TRACK 22 AUDIO
    TITLE "5:cjc157_0858"
    INDEX 01 00:27:10
  TRACK 23 AUDIO
    TITLE "0:"
    INDEX 01 00:29:27
  TRACK 24 AUDIO
    TITLE "5:cjc157_0859"
    INDEX 01 00:30:03
  TRACK 25 AUDIO
    TITLE "0:"
    INDEX 01 00:32:00
  TRACK 26 AUDIO
    TITLE "3:cjc157_0860"
    INDEX 01 00:32:43
  TRACK 27 AUDIO
    TITLE "0:"
    INDEX 01 00:34:00
  TRACK 28 AUDIO
    TITLE "4:cjc157_0861"
    INDEX 01 00:34:43
  TRACK 29 AUDIO
    TITLE "0:"
    INDEX 01 00:35:47
  TRACK 30 AUDIO
    TITLE "5:cjc157_0862"
    INDEX 01 00:36:15
  TRACK 31 AUDIO
    TITLE "0:"
    INDEX 01 00:38:47
  TRACK 32 AUDIO
    TITLE "3:cjc157_0863"
    INDEX 01 00:39:21
  TRACK 33 AUDIO
    TITLE "0:"
    INDEX 01 00:40:52
  TRACK 34 AUDIO
    TITLE "4:cjc157_0864"
    INDEX 01 00:41:22
  TRACK 35 AUDIO
    TITLE "0:"
    INDEX 01 00:42:27
  TRACK 36 AUDIO
    TITLE "5:cjc157_0865"
    INDEX 01 00:43:01
  TRACK 37 AUDIO
    TITLE "0:"
    INDEX 01 00:45:37
  TRACK 38 AUDIO
    TITLE "3:cjc157_0866"
    INDEX 01 00:46:09
  TRACK 39 AUDIO
    TITLE "0:"
    INDEX 01 00:47:58
  TRACK 40 AUDIO
    TITLE "4:cjc157_0867"
    INDEX 01 00:48:28
  TRACK 41 AUDIO
    TITLE "0:"
    INDEX 01 00:49:43
  TRACK 42 AUDIO
    TITLE "5:cjc157_0868"
    INDEX 01 00:50:09
  TRACK 43 AUDIO
    TITLE "0:"
    INDEX 01 00:52:39
  TRACK 44 AUDIO
    TITLE "5:cjc157_0869"
    INDEX 01 00:53:08
  TRACK 45 AUDIO
    TITLE "0:"
    INDEX 01 00:54:62
  TRACK 46 AUDIO
    TITLE "3:cjc157_0870"
    INDEX 01 00:55:28
  TRACK 47 AUDIO
    TITLE "0:"
    INDEX 01 00:56:39
  TRACK 48 AUDIO
    TITLE "4:cjc157_0871"
    INDEX 01 00:57:13
  TRACK 49 AUDIO
    TITLE "0:"
    INDEX 01 00:58:30
  TRACK 50 AUDIO
    TITLE "5:cjc157_0872"
    INDEX 01 00:59:00
  TRACK 51 AUDIO
    TITLE "0:"
    INDEX 01 01:02:12
  TRACK 52 AUDIO
    TITLE "5:cjc157_0873"
    INDEX 01 01:02:55
  TRACK 53 AUDIO
    TITLE "0:"
    INDEX 01 01:05:11
  TRACK 54 AUDIO
    TITLE "3:cjc157_0874"
    INDEX 01 01:05:64
  TRACK 55 AUDIO
    TITLE "0:"
    INDEX 01 01:07:25
  TRACK 56 AUDIO
    TITLE "4:cjc157_0875"
    INDEX 01 01:07:72
  TRACK 57 AUDIO
    TITLE "0:"
    INDEX 01 01:09:03
  TRACK 58 AUDIO
    TITLE "5:cjc157_0876"
    INDEX 01 01:09:48
  TRACK 59 AUDIO
    TITLE "0:"
    INDEX 01 01:11:62
  TRACK 60 AUDIO
    TITLE "5:cjc157_0877"
    INDEX 01 01:12:32
  TRACK 61 AUDIO
    TITLE "0:"
    INDEX 01 01:15:70
  TRACK 62 AUDIO
    TITLE "5:cjc157_0878"
    INDEX 01 01:16:42
  TRACK 63 AUDIO
    TITLE "0:"
    INDEX 01 01:17:65
  TRACK 64 AUDIO
    TITLE "5:cjc157_0879"
    INDEX 01 01:18:35
  TRACK 65 AUDIO
    TITLE "0:"
    INDEX 01 01:19:50
  TRACK 66 AUDIO
    TITLE "3:cjc157_0880"
    INDEX 01 01:20:26
  TRACK 67 AUDIO
    TITLE "0:"
    INDEX 01 01:21:70
  TRACK 68 AUDIO
    TITLE "4:cjc157_0881"
    INDEX 01 01:22:37
  TRACK 69 AUDIO
    TITLE "0:"
    INDEX 01 01:23:54
  TRACK 70 AUDIO
    TITLE "5:cjc157_0882"
    INDEX 01 01:24:28
  TRACK 71 AUDIO
    TITLE "0:"
    INDEX 01 01:25:74
  TRACK 72 AUDIO
    TITLE "3:cjc157_0883"
    INDEX 01 01:26:48
  TRACK 73 AUDIO
    TITLE "0:"
    INDEX 01 01:28:14
  TRACK 74 AUDIO
    TITLE "4:cjc157_0884"
    INDEX 01 01:28:55
  TRACK 75 AUDIO
    TITLE "0:"
    INDEX 01 01:30:01
  TRACK 76 AUDIO
    TITLE "5:cjc157_0885"
    INDEX 01 01:30:50
  TRACK 77 AUDIO
    TITLE "0:"
    INDEX 01 01:32:68
